<svg width="100" height="100" viewBox="0 0 100 100" fill="none" xmlns="http://www.w3.org/2000/svg">
<path d="M49.9999 70C38.9542 70 30 61.0457 30 50C30 38.9543 38.9543 30 50 30C58.9553 30 66.4514 35.8858 68.9999 44H63.9999" stroke="#FFCC00" stroke-width="3" stroke-linecap="round" stroke-linejoin="round"/>
<path d="M50 42V50L54 54" stroke="#FFCC00" stroke-width="3" stroke-linecap="round" stroke-linejoin="round"/>
<path d="M69.9101 52C69.9696 51.3417 70 50.6746 70 50M56 70C56.6832 69.7751 57.3506 69.5129 58 69.2155M67.5812 60C67.9669 59.2568 68.3109 58.4865 68.6101 57.6924M62.3849 66.4585C63.0739 65.8883 63.7262 65.2716 64.3376 64.613" stroke="#FFCC00" stroke-width="3" stroke-linecap="round" stroke-linejoin="round"/>
</svg>
