<svg width="66" height="64" viewBox="0 0 66 64" fill="none" xmlns="http://www.w3.org/2000/svg">
<path d="M50.7891 26.3457C47.6737 20.8283 40.8787 17 33 17C22.8834 17 14.5509 23.3238 13.5197 31.4302H12.375C6.11634 31.4302 1.03125 35.615 1.03125 40.7674C1.03125 45.9284 6.11634 50.1047 12.375 50.1047H50.5312C58.5028 50.1047 64.9688 44.7824 64.9688 38.2209C64.9688 31.7273 58.6472 26.4645 50.7891 26.3457Z" fill="#6C63FF"/>
<path d="M64.9688 41.6163C64.9688 48.1863 58.5028 53.5 50.5312 53.5H12.375C6.11634 53.5 1.03125 49.3237 1.03125 44.1628V40.7674C1.03125 45.9284 6.11634 50.1047 12.375 50.1047H50.5312C58.5028 50.1047 64.9688 44.7824 64.9688 38.2209V41.6163Z" fill="#6C63FF" fill-opacity="0.42"/>
</svg>
